<?xml version="1.0" encoding="utf-8"?>
<!-- Generator: Adobe Illustrator 23.1.1, SVG Export Plug-In . SVG Version: 6.00 Build 0)  -->
<svg version="1.1" id="Layer_1" xmlns="http://www.w3.org/2000/svg" xmlns:xlink="http://www.w3.org/1999/xlink" x="0px" y="0px" width="176" height="62" 
	 viewBox="0 0 176.5 62.1" style="enable-background:new 0 0 176.5 62.1;" xml:space="preserve">
<style type="text/css">
	.st0{fill:#009D4F;}
	.st1{fill:#FFFFFF;}
</style>
<title>Hamar katedralskole</title>
<g>
	<path class="st0" d="M0,0v31.5c0,20.8,24.7,30.6,24.7,30.6l0,0c0,0,24.7-9.9,24.7-30.6V0H0z"/>
	<polygon class="st1" points="32.6,19.3 35,16.9 24.7,6.7 14.4,17 16.8,19.3 24.7,11.5 	"/>
	<polygon class="st1" points="8.2,15.5 3.4,20.3 3.4,25.1 8.2,20.3 19.9,32 22.3,29.6 	"/>
	<path class="st1" d="M46.1,20.3l-4.8-4.8L19,37.7l0,0c-3.3,3.1-3.4,8.4-0.3,11.7c3.1,3.3,8.4,3.4,11.7,0.3
		c3.3-3.1,3.4-8.4,0.3-11.7c-0.1-0.1-0.2-0.2-0.2-0.2l0,0l-1-1l-2.3,2.4l1,1c1.9,1.9,1.9,5,0,6.9c-1.9,1.9-5,1.9-6.9,0
		c-0.9-0.9-1.4-2.1-1.4-3.4c0-1.3,0.5-2.6,1.5-3.5l0,0l20-19.9l0,0l4.8,4.8L46.1,20.3z"/>
	<path d="M66,28.2V11.5h2.8v7.2h8.3v-7.2H80v16.7h-2.9v-6.8h-8.3v6.8H66z"/>
	<path d="M94.1,28.1h-2.4v-1.7c-1,1.3-2.6,2-4.2,1.9c-1.2,0-2.4-0.4-3.3-1.1c-0.9-0.7-1.3-1.9-1.3-3c-0.1-1.1,0.5-2.2,1.4-2.8
		c1.1-0.7,2.4-1,3.8-0.9h3.5V20c0-1.7-0.9-2.5-2.8-2.5c-1.3,0-2.6,0.5-3.6,1.2L83.8,17c1.5-1.2,3.3-1.8,5.2-1.8
		c1.3-0.1,2.6,0.3,3.7,1.1c1,0.9,1.5,2.2,1.4,3.6L94.1,28.1z M91.4,23.4v-1.1h-3c-1.9,0-2.9,0.6-2.9,1.8c0,0.6,0.2,1.1,0.7,1.4
		c0.6,0.4,1.3,0.5,2,0.5c0.8,0,1.6-0.2,2.2-0.7C91.1,24.9,91.5,24.1,91.4,23.4z"/>
	<path d="M100.2,21.2v6.9h-2.7V15.4h2.7v2.3c0.4-0.8,1-1.4,1.7-1.8c0.8-0.4,1.6-0.7,2.5-0.7c1.8-0.2,3.4,0.9,4.1,2.5
		c1.1-1.6,2.8-2.5,4.7-2.5c1.3-0.1,2.5,0.4,3.5,1.3c0.9,1,1.4,2.4,1.3,3.8v7.8h-2.7v-7c0-2.3-1-3.5-2.9-3.5c-0.9,0-1.7,0.3-2.4,0.9
		c-0.7,0.7-1.1,1.6-1,2.5v7.1h-2.7v-7c0.1-0.9-0.1-1.9-0.6-2.7c-0.5-0.6-1.2-0.9-2-0.8c-0.9,0-1.8,0.3-2.4,0.9
		C100.5,19.2,100.1,20.2,100.2,21.2z"/>
	<path d="M131.7,28.1h-2.4v-1.7c-1,1.3-2.6,2-4.2,1.9c-1.2,0-2.4-0.4-3.3-1.1c-0.9-0.7-1.3-1.9-1.3-3c-0.1-1.1,0.5-2.2,1.4-2.8
		c1.1-0.7,2.4-1,3.8-0.9h3.4V20c0-1.7-0.9-2.5-2.8-2.5c-1.3,0.1-2.6,0.5-3.7,1.3l-1.2-1.8c1.5-1.2,3.3-1.9,5.3-1.8
		c1.3-0.1,2.6,0.3,3.7,1.1c1,0.9,1.5,2.2,1.4,3.6L131.7,28.1z M129,23.4v-1.1h-3c-1.9,0-2.9,0.6-2.9,1.8c0,0.6,0.2,1.1,0.7,1.4
		c0.6,0.4,1.3,0.5,2,0.5c0.8,0,1.6-0.2,2.2-0.7C128.7,24.9,129,24.1,129,23.4z"/>
	<path d="M141.7,17.9c-1.1-0.1-2.3,0.4-3,1.3c-0.7,1-1.1,2.2-1,3.5v5.5h-2.7V15.4h2.7V18c0.4-0.8,1-1.5,1.8-2
		c0.7-0.5,1.5-0.8,2.4-0.8v2.7L141.7,17.9z"/>
	<path d="M73.7,48.6h-1.6l0,0L69,44l-1.9,2v2.6h-1.3V35.8h1.3v8.4l4.7-4.7h1.6l-3.4,3.5L73.7,48.6z"/>
	<path d="M82.6,48.6h-1.3v-1.3c-0.3,0.4-0.8,0.8-1.3,1c-0.6,0.3-1.3,0.4-2,0.4c-0.6,0-1.1-0.1-1.6-0.3c-0.9-0.4-1.5-1.4-1.5-2.4
		c0-0.7,0.3-1.4,0.9-1.9c0.7-0.5,1.6-0.7,2.5-0.7h2.9v-0.6c0-0.6-0.2-1.2-0.6-1.6c-0.5-0.4-1.1-0.6-1.8-0.6c-1,0-2,0.4-2.8,1.1
		l-0.1,0l-0.6-0.9h0.1c0.5-0.4,1.1-0.7,1.7-0.9c0.6-0.2,1.2-0.3,1.9-0.3c0.9-0.1,1.8,0.2,2.5,0.8c0.6,0.6,1,1.4,0.9,2.3L82.6,48.6z
		 M81.3,44.3h-2.8c-0.6,0-1.2,0.1-1.7,0.4c-0.4,0.2-0.6,0.7-0.6,1.1c0,0.5,0.2,0.9,0.6,1.2c0.4,0.3,1,0.5,1.5,0.5
		c0.7,0,1.4-0.2,2-0.5c0.5-0.3,0.9-0.9,1.1-1.5L81.3,44.3z"/>
	<path d="M89.9,48c-0.6,0.4-1.3,0.6-2,0.7c-0.6,0-1.2-0.2-1.7-0.7c-0.4-0.5-0.7-1.2-0.6-1.9v-5.2h-1.3v-1h1.3v-2.3h1.3v2.3h2.9v1
		h-2.9v5c0,1.1,0.4,1.6,1.1,1.6c0.5,0,0.9-0.2,1.3-0.4L89.9,48z"/>
	<path d="M99.7,44.5h-7.4c0.1,0.8,0.4,1.6,1,2.2c0.6,0.6,1.4,0.9,2.2,0.8c0.5,0,1.1-0.1,1.6-0.3c0.5-0.2,0.9-0.5,1.2-0.8v-0.1
		l0.8,0.8v0.1c-0.4,0.5-1,0.8-1.6,1.1c-0.6,0.3-1.3,0.4-2,0.4c-0.8,0-1.6-0.2-2.3-0.6c-0.7-0.4-1.2-0.9-1.6-1.6
		c-0.4-0.7-0.6-1.5-0.6-2.3c0-0.8,0.2-1.6,0.6-2.3c0.4-0.7,0.9-1.2,1.6-1.6c0.7-0.4,1.5-0.6,2.3-0.6c1.2-0.1,2.4,0.4,3.2,1.3
		C99.4,41.9,99.8,43.2,99.7,44.5L99.7,44.5z M92.3,43.5h6.2c0-0.8-0.3-1.5-0.9-2.1c-0.6-0.5-1.3-0.8-2.1-0.8c-0.8,0-1.6,0.3-2.2,0.8
		C92.7,42,92.4,42.7,92.3,43.5z"/>
	<path d="M110.7,35.8v12.7h-1.3v-1.8c-0.3,0.5-0.8,1-1.3,1.3c-0.7,0.4-1.4,0.6-2.2,0.6c-0.8,0-1.6-0.2-2.3-0.6
		c-0.7-0.4-1.2-1-1.6-1.6c-0.4-0.7-0.6-1.5-0.6-2.4c0-0.8,0.2-1.6,0.6-2.4c0.4-0.7,0.9-1.2,1.6-1.6c0.7-0.4,1.5-0.6,2.2-0.6
		c0.8,0,1.5,0.2,2.2,0.6c0.5,0.3,1,0.8,1.3,1.3v-5.5H110.7z M109.4,44.1c0-0.6-0.1-1.2-0.4-1.8c-0.3-0.5-0.7-0.9-1.2-1.2
		c-0.5-0.3-1.1-0.5-1.7-0.5c-0.6,0-1.2,0.1-1.7,0.5c-0.5,0.3-0.9,0.7-1.2,1.2c-0.3,0.5-0.4,1.2-0.4,1.8c0,0.6,0.1,1.2,0.4,1.8
		c0.3,0.5,0.7,0.9,1.2,1.2c1.1,0.6,2.3,0.6,3.4,0c0.5-0.3,0.9-0.7,1.2-1.2C109.3,45.3,109.4,44.7,109.4,44.1z"/>
	<path d="M117.8,39.5v1.2h-0.1c-0.8,0-1.6,0.3-2.2,0.8c-0.6,0.6-0.9,1.4-0.9,2.2v4.8h-1.3v-9h1.3v1.8c0.3-0.5,0.7-1,1.1-1.3
		c0.6-0.4,1.3-0.6,2-0.6L117.8,39.5z"/>
	<path d="M126.7,48.6h-1.3v-1.3c-0.3,0.4-0.8,0.8-1.3,1c-0.6,0.3-1.3,0.4-2,0.4c-0.6,0-1.1-0.1-1.6-0.3c-0.9-0.4-1.5-1.4-1.5-2.4
		c0-0.7,0.3-1.4,1-1.9c0.7-0.5,1.6-0.7,2.5-0.7h2.9v-0.6c0-0.6-0.2-1.2-0.6-1.6c-0.5-0.4-1.1-0.6-1.8-0.6c-1,0-2,0.4-2.8,1.1l-0.1,0
		l-0.6-0.9h0.1c0.5-0.4,1.1-0.7,1.7-0.9c0.6-0.2,1.2-0.3,1.9-0.3c0.9-0.1,1.8,0.2,2.5,0.8c0.6,0.6,1,1.4,0.9,2.3L126.7,48.6z
		 M125.4,44.3h-2.8c-0.6,0-1.2,0.1-1.7,0.4c-0.4,0.2-0.6,0.7-0.6,1.1c0,0.5,0.2,0.9,0.6,1.2c0.4,0.3,1,0.5,1.5,0.5
		c0.7,0,1.4-0.2,2-0.5c0.5-0.4,0.9-0.9,1.1-1.5L125.4,44.3z"/>
	<path d="M132.6,48L132.6,48c-0.4,0.3-1,0.5-1.5,0.6c-0.5,0-1-0.2-1.3-0.6c-0.4-0.4-0.5-1-0.5-1.6V35.8h1.3v10.5c0,0.7,0.2,1,0.8,1
		c0.3,0,0.5-0.1,0.8-0.3L132.6,48z"/>
	<path d="M140.9,46c0.1,0.8-0.3,1.5-0.9,2c-0.7,0.5-1.5,0.7-2.3,0.7c-0.6,0-1.3-0.1-1.9-0.3c-0.6-0.2-1.1-0.5-1.5-0.9l0,0l0.5-1
		l0.1,0.1c0.8,0.7,1.8,1.1,2.9,1.1c0.5,0,1-0.1,1.4-0.4c0.3-0.2,0.5-0.6,0.5-1c0-0.3-0.1-0.6-0.3-0.8c-0.2-0.2-0.4-0.4-0.7-0.5
		c-0.3-0.1-0.7-0.2-1.2-0.4c-0.5-0.1-1-0.3-1.5-0.5c-0.4-0.2-0.7-0.4-1-0.8c-0.3-0.4-0.4-0.8-0.4-1.3c0-0.7,0.3-1.4,0.9-1.8
		c0.7-0.4,1.4-0.6,2.2-0.6c0.5,0,1,0.1,1.5,0.2c0.5,0.1,0.9,0.3,1.3,0.6h0.1l-0.5,1h-0.1c-0.3-0.2-0.7-0.4-1.1-0.5l0,0
		c-0.4-0.1-0.8-0.2-1.2-0.2c-0.5,0-0.9,0.1-1.3,0.3c-0.3,0.2-0.5,0.6-0.5,0.9c0,0.3,0.1,0.5,0.3,0.7c0.2,0.2,0.4,0.3,0.7,0.5
		c0.4,0.2,0.8,0.3,1.1,0.4c0.5,0.1,1,0.3,1.5,0.5c0.4,0.2,0.7,0.4,1,0.8C140.8,45.1,140.9,45.6,140.9,46z"/>
	<path d="M151.1,48.6h-1.6l0,0l-3.1-4.6l-1.9,2v2.6h-1.3V35.8h1.3v8.4l4.7-4.7h1.6l-3.4,3.5L151.1,48.6z"/>
	<path d="M161.2,44c0,0.8-0.2,1.6-0.6,2.4c-0.4,0.7-1,1.2-1.6,1.6c-1.5,0.8-3.2,0.8-4.7,0c-0.7-0.4-1.2-0.9-1.6-1.6
		c-0.4-0.7-0.6-1.5-0.6-2.4c0-0.8,0.2-1.6,0.6-2.3c0.4-0.7,0.9-1.2,1.6-1.6c1.5-0.8,3.2-0.8,4.7,0c0.7,0.4,1.2,0.9,1.6,1.6
		C161,42.4,161.2,43.2,161.2,44z M159.9,44c0-0.6-0.1-1.2-0.4-1.8c-0.3-0.5-0.7-0.9-1.2-1.2c-0.5-0.3-1.1-0.4-1.7-0.4
		c-0.6,0-1.2,0.1-1.7,0.4c-0.5,0.3-0.9,0.7-1.1,1.2c-0.3,0.5-0.4,1.2-0.4,1.8c0,0.6,0.1,1.2,0.4,1.8c0.3,0.5,0.7,1,1.2,1.3
		c0.5,0.3,1.1,0.4,1.7,0.4c0.6,0,1.2-0.1,1.7-0.4c0.5-0.3,0.9-0.7,1.2-1.2C159.8,45.3,160,44.7,159.9,44L159.9,44z"/>
	<path d="M166.9,48L166.9,48c-0.4,0.3-1,0.5-1.5,0.6c-0.5,0-1-0.2-1.3-0.6c-0.4-0.4-0.5-1-0.5-1.6V35.8h1.3v10.5c0,0.7,0.3,1,0.8,1
		c0.3,0,0.5-0.1,0.8-0.3L166.9,48z"/>
	<path d="M176.5,44.5h-7.4c0.1,0.8,0.4,1.6,1,2.2c0.6,0.6,1.4,0.9,2.2,0.8c0.5,0,1.1-0.1,1.5-0.3c0.5-0.2,0.9-0.5,1.2-0.8l0.1-0.1
		l0.8,0.8l-0.1,0.1c-0.4,0.5-1,0.8-1.6,1.1c-0.6,0.3-1.3,0.4-2,0.4c-0.8,0-1.6-0.2-2.3-0.6c-0.7-0.4-1.2-0.9-1.6-1.6
		c-0.4-0.7-0.6-1.5-0.6-2.3c0-0.8,0.2-1.6,0.6-2.3c0.4-0.7,0.9-1.2,1.6-1.6c0.7-0.4,1.5-0.6,2.3-0.6c1.2-0.1,2.4,0.4,3.2,1.3
		C176.3,41.9,176.6,43.2,176.5,44.5L176.5,44.5z M169.1,43.5h6.2c0-0.8-0.4-1.5-0.9-2.1c-0.6-0.5-1.3-0.8-2.1-0.8
		c-0.8,0-1.6,0.3-2.2,0.8C169.5,42,169.2,42.7,169.1,43.5L169.1,43.5z"/>
</g>
</svg>
